<?xml version="1.0" encoding="UTF-8"?> <svg xmlns="http://www.w3.org/2000/svg" width="205" height="61" viewBox="0 0 205 61" fill="none"><path d="M50.4863 14.1326L28.0527 1.17941C27.0502 0.60019 25.815 0.60019 24.8125 1.17941L2.37886 14.1326C1.37636 14.7119 0.76001 15.7812 0.76001 16.9372V42.8412C0.76001 43.9996 1.37883 45.0689 2.37886 45.6457L24.8125 58.5989C25.3125 58.8885 25.8719 59.0321 26.4313 59.0321C26.9907 59.0321 27.5502 58.8885 28.0502 58.5989L50.4838 45.6457C51.4863 45.0665 52.1026 43.9971 52.1026 42.8412V16.9372C52.1026 15.7787 51.4838 14.7094 50.4838 14.1326" fill="black"></path><path d="M38.033 22.3011C38.5108 22.5759 38.8053 23.0858 38.8053 23.6378V44.1778L44.2188 41.0565C44.6965 40.7817 44.9911 40.2198 44.9911 39.6678V20.0684C44.9911 19.5164 44.6965 19.0065 44.2188 18.7318L39.5776 16.051C39.0999 15.7738 38.5108 15.7738 38.033 16.051L32.6196 19.1773L38.033 22.3036V22.3011Z" fill="white"></path><path d="M25.659 29.4448C26.1368 29.7196 26.4313 30.2295 26.4313 30.7815V44.1778L31.8448 41.0515C32.3225 40.7768 32.6171 40.2173 32.6171 39.6678V27.2097C32.6171 26.6577 32.3225 26.1477 31.8448 25.873L27.2036 23.1922C26.7259 22.915 26.1368 22.915 25.659 23.1922L20.2455 26.3185L25.659 29.4448Z" fill="white"></path><path d="M13.285 36.5886C13.7628 36.8633 14.0573 37.3732 14.0573 37.9252V44.1778L19.4708 41.0515C19.9485 40.7768 20.2431 40.2668 20.2431 39.7149V34.3534C20.2431 33.8014 19.9485 33.2915 19.4708 33.0167L14.8296 30.3359C14.3519 30.0587 13.7628 30.0587 13.285 30.3359L7.87155 33.4622L13.285 36.5886Z" fill="white"></path><path d="M198.752 18.6625L204.47 10.6821H199.779L196.682 15.2985C196.573 15.4767 196.467 15.6624 196.363 15.8579C196.259 16.051 196.167 16.2268 196.088 16.3877H195.999C195.92 16.2292 195.828 16.056 195.724 15.8654C195.62 15.6772 195.509 15.4891 195.39 15.2985L192.308 10.6821H187.618L193.321 18.6625L187.633 26.5834H192.264L195.422 21.8927C195.63 21.5462 195.823 21.217 196.002 20.91H196.091C196.259 21.2269 196.447 21.5561 196.658 21.8927L199.858 26.5834H204.489L198.757 18.6625H198.752ZM183.246 21.2095C182.9 21.9249 182.422 22.4695 181.818 22.8482C181.212 23.2244 180.524 23.415 179.749 23.415C178.974 23.415 178.298 23.2244 177.694 22.8408C177.088 22.4596 176.613 21.9125 176.264 21.2021C175.917 20.4917 175.741 19.6452 175.741 18.6625C175.741 17.6798 175.912 16.8134 176.256 16.0931C176.598 15.3728 177.073 14.8233 177.677 14.4396C178.283 14.0584 178.972 13.8653 179.746 13.8653C180.521 13.8653 181.224 14.0559 181.831 14.4396C182.437 14.8208 182.91 15.3728 183.251 16.0931C183.593 16.8134 183.766 17.6699 183.766 18.6625C183.766 19.6551 183.593 20.4942 183.244 21.2095M187.004 14.2936C186.303 13.0386 185.326 12.0633 184.071 11.3678C182.816 10.6722 181.383 10.3257 179.774 10.3257C178.165 10.3257 176.729 10.6747 175.462 11.3752C174.197 12.0757 173.212 13.0559 172.506 14.3158C171.801 15.5758 171.449 17.0263 171.449 18.6649C171.449 20.3036 171.806 21.7368 172.521 22.9992C173.236 24.2591 174.226 25.2319 175.491 25.9176C176.756 26.6032 178.175 26.9448 179.741 26.9448C181.308 26.9448 182.766 26.6032 184.024 25.9176C185.279 25.2319 186.264 24.2616 186.979 23.0066C187.695 21.7516 188.051 20.2986 188.051 18.6501C188.051 17.0015 187.702 15.551 187.001 14.2936M165.407 21.717C165.11 22.1848 164.679 22.5388 164.12 22.7814C163.558 23.0239 162.912 23.1452 162.177 23.1452H157.62V17.0857H162.192C162.937 17.0857 163.583 17.202 164.135 17.4347C164.687 17.6674 165.11 18.0065 165.407 18.4471C165.704 18.8902 165.855 19.4174 165.855 20.0338C165.855 20.6897 165.706 21.2491 165.407 21.717ZM157.62 8.52364H161.654C162.35 8.52364 162.951 8.63007 163.464 8.84295C163.976 9.05582 164.367 9.36771 164.64 9.77366C164.912 10.1796 165.048 10.6672 165.048 11.2341C165.048 11.8009 164.914 12.2861 164.647 12.6945C164.38 13.1029 163.989 13.4148 163.479 13.6327C162.966 13.8505 162.37 13.9594 161.684 13.9594H157.62V8.52364ZM168.281 16.2738C167.615 15.7639 166.82 15.3926 165.9 15.1649V15.1055C166.615 14.8777 167.229 14.5386 167.746 14.0931C168.261 13.645 168.657 13.1203 168.929 12.5138C169.202 11.9074 169.338 11.2489 169.338 10.5336C169.338 9.49148 169.078 8.56077 168.556 7.74144C168.033 6.92212 167.288 6.28102 166.313 5.81318C165.34 5.34783 164.199 5.11267 162.887 5.11267H153.209V26.5859H163.573C164.942 26.5859 166.137 26.321 167.154 25.7888C168.172 25.2591 168.957 24.5314 169.509 23.6081C170.058 22.6848 170.335 21.6526 170.335 20.5115C170.335 19.6476 170.16 18.8531 169.806 18.1303C169.454 17.405 168.944 16.7887 168.278 16.2763M145.941 10.6846H141.028L135.102 17.8926V5.11515H130.886V26.5884H135.102V18.8159L141.476 26.5884H146.449L139.555 18.2045L145.944 10.6846H145.941ZM124.307 22.0313C124.03 22.467 123.644 22.8185 123.154 23.0809C122.661 23.3432 122.074 23.4744 121.389 23.4744C120.564 23.4744 119.852 23.2838 119.253 22.9002C118.651 22.519 118.191 21.9645 117.869 21.2392C117.547 20.514 117.386 19.6452 117.386 18.6328C117.386 17.6204 117.545 16.7763 117.861 16.0411C118.178 15.306 118.639 14.7441 119.24 14.3505C119.842 13.9594 120.559 13.7614 121.391 13.7614C122.087 13.7614 122.678 13.8975 123.171 14.1698C123.664 14.4421 124.045 14.8059 124.317 15.2564C124.589 15.707 124.78 16.2218 124.891 16.7986H129.045C128.886 15.598 128.495 14.5089 127.876 13.5287C127.255 12.5509 126.396 11.7712 125.292 11.192C124.191 10.6103 122.884 10.3207 121.376 10.3207C119.869 10.3207 118.386 10.6499 117.139 11.3108C115.894 11.9717 114.913 12.9321 114.198 14.1921C113.483 15.452 113.126 16.957 113.126 18.7045C113.126 20.4521 113.493 21.9868 114.228 23.2244C114.963 24.4596 115.958 25.3878 117.213 26.0091C118.468 26.6304 119.866 26.9399 121.404 26.9399C122.941 26.9399 124.173 26.6626 125.275 26.1057C126.376 25.5512 127.245 24.7938 127.881 23.8358C128.518 22.8779 128.909 21.7888 129.057 20.566H124.904C124.785 21.1031 124.584 21.5883 124.307 22.0264M106.354 21.1254C106.029 21.8259 105.574 22.363 104.982 22.7417C104.391 23.118 103.7 23.3086 102.906 23.3086C102.111 23.3086 101.445 23.1205 100.851 22.7417C100.255 22.3655 99.7917 21.8259 99.46 21.1254C99.1259 20.4249 98.96 19.5981 98.96 18.6451C98.96 17.6921 99.1234 16.8654 99.4526 16.1649C99.7794 15.4644 100.242 14.9272 100.839 14.5485C101.433 14.1723 102.123 13.9817 102.908 13.9817C103.693 13.9817 104.398 14.1747 104.992 14.5634C105.589 14.9495 106.044 15.4966 106.364 16.202C106.68 16.9075 106.841 17.7268 106.841 18.66C106.841 19.5932 106.68 20.4249 106.359 21.1254M111.235 23.1725C111.096 22.9843 111.027 22.717 111.027 22.368V10.6796H106.784V12.9272H106.666C106.329 12.3802 105.901 11.9148 105.386 11.5286C104.869 11.1425 104.289 10.843 103.643 10.6351C102.997 10.4271 102.297 10.3232 101.544 10.3232C100.175 10.3232 98.9699 10.6697 97.9328 11.3653C96.8956 12.0608 96.0912 13.0386 95.5194 14.2985C94.9476 15.5584 94.6629 17.0189 94.6629 18.6773C94.6629 20.3358 94.9575 21.863 95.5491 23.1081C96.1407 24.3532 96.955 25.3037 97.9922 25.9596C99.0293 26.6156 100.203 26.9423 101.515 26.9423C102.24 26.9423 102.925 26.8408 103.576 26.6379C104.227 26.4349 104.812 26.1379 105.334 25.7517C105.854 25.3656 106.299 24.8977 106.666 24.3532H106.896C106.963 24.6502 107.062 24.9274 107.193 25.1799C107.455 25.6824 107.864 26.071 108.413 26.3483C108.965 26.6255 109.666 26.7641 110.52 26.7641C110.906 26.7641 111.267 26.7369 111.599 26.6824C111.931 26.628 112.223 26.5661 112.47 26.4968C112.48 26.4869 112.488 26.4819 112.492 26.4819H112.515V23.3853C112.205 23.4348 112.002 23.4596 111.903 23.4596C111.596 23.4596 111.371 23.3655 111.233 23.1774M88.3955 26.5884H92.6381V5.1102H88.3955V26.5834V26.5884ZM81.4225 21.7195C81.1255 22.1873 80.6948 22.5413 80.1354 22.7838C79.5735 23.0264 78.9274 23.1477 78.1923 23.1477H73.6353V17.0882H78.2071C78.9522 17.0882 79.5982 17.2045 80.1502 17.4372C80.7022 17.6699 81.1255 18.009 81.4225 18.4496C81.7196 18.8927 81.8681 19.4199 81.8681 20.0362C81.8681 20.6922 81.7196 21.2516 81.4225 21.7195ZM73.6353 8.52611H77.67C78.3656 8.52611 78.967 8.63255 79.4794 8.84543C79.9918 9.0583 80.3829 9.37019 80.6552 9.77614C80.9275 10.1821 81.0636 10.6697 81.0636 11.2366C81.0636 11.8034 80.93 12.2886 80.6626 12.697C80.3953 13.1054 80.0042 13.4173 79.4943 13.6351C78.9819 13.853 78.3854 13.9619 77.6997 13.9619H73.6353V8.52611ZM84.2964 16.2763C83.6305 15.7664 82.8359 15.3951 81.9151 15.1673V15.1079C82.6305 14.8802 83.2444 14.5411 83.7617 14.0955C84.2766 13.6475 84.6726 13.1227 84.9449 12.5163C85.2172 11.9098 85.3533 11.2514 85.3533 10.5361C85.3533 9.49395 85.0934 8.56324 84.5711 7.74392C84.0513 6.92459 83.3038 6.28349 82.331 5.81566C81.3582 5.3503 80.2171 5.11515 78.9052 5.11515H69.2267V26.5884H79.5908C80.9621 26.5884 82.1552 26.3235 83.1726 25.7913C84.1899 25.2616 84.9746 24.5339 85.5266 23.6106C86.0786 22.6873 86.3533 21.6551 86.3533 20.514C86.3533 19.6501 86.1776 18.8555 85.8261 18.1327C85.4721 17.4075 84.9647 16.7911 84.2988 16.2787" fill="black"></path><path d="M116.027 33.1949H113.809V54.6681H116.027V33.1949Z" fill="#5A28BE"></path><path d="M121.151 33.1949H118.933V54.6681H121.151V33.1949Z" fill="#5A28BE"></path><path d="M71.5362 33.1949H69.2292V54.6681H71.5362V33.1949Z" fill="#5A28BE"></path><path d="M99.512 45.7199C99.6309 44.5986 99.9304 43.658 100.413 42.8981C100.893 42.1382 101.5 41.5738 102.23 41.2C102.96 40.8287 103.762 40.6406 104.636 40.6406C105.589 40.6406 106.416 40.8535 107.116 41.2817C107.817 41.71 108.354 42.3065 108.733 43.0763C109.109 43.8461 109.314 44.7273 109.344 45.7199H99.517H99.512ZM108.282 39.8089C107.24 39.1827 106.034 38.8708 104.663 38.8708C103.292 38.8708 102.022 39.1901 100.911 39.8312C99.7992 40.4723 98.9204 41.4005 98.2744 42.6159C97.6283 43.8313 97.3065 45.2595 97.3065 46.8957C97.3065 48.4353 97.6036 49.8215 98.2001 51.0567C98.7967 52.2919 99.6531 53.2597 100.769 53.9602C101.886 54.6607 103.205 55.0097 104.723 55.0097C105.913 55.0097 106.978 54.7969 107.916 54.3686C108.854 53.9429 109.624 53.3488 110.223 52.5889C110.824 51.829 111.242 50.9428 111.48 49.9304H109.292C109.104 50.5864 108.802 51.1532 108.384 51.6359C107.968 52.1186 107.448 52.4899 106.827 52.7523C106.205 53.0146 105.525 53.1458 104.779 53.1458C103.777 53.1458 102.888 52.9255 102.114 52.4825C101.339 52.0419 100.722 51.3933 100.267 50.5393C99.8091 49.6854 99.5467 48.668 99.4774 47.4873H111.495C111.515 47.2695 111.53 47.0863 111.54 46.9353C111.549 46.7868 111.554 46.6333 111.554 46.4724C111.554 44.9452 111.27 43.606 110.698 42.46C110.126 41.3139 109.322 40.4277 108.277 39.8015" fill="#5A28BE"></path><path d="M126.315 39.2124H124.097V54.6681H126.315V39.2124Z" fill="#5A28BE"></path><path d="M85.4028 39.6134C84.5637 39.1183 83.5538 38.8683 82.3731 38.8683C81.1923 38.8683 80.1181 39.1456 79.2171 39.7025C78.3136 40.2594 77.6428 41.0119 77.2071 41.9649H77.1477V39.2099H74.9298V54.6657H77.1477V45.7472C77.1477 44.8338 77.3334 44.0046 77.7071 43.2595C78.0784 42.5144 78.618 41.9253 79.3235 41.4946C80.029 41.0639 80.8681 40.8461 81.8409 40.8461C83.081 40.8461 84.0439 41.2322 84.7295 42.007C85.4152 42.7818 85.7568 43.8882 85.7568 45.3264V54.6632H87.9747V45.0887C87.9747 43.7793 87.7568 42.6605 87.3187 41.7397C86.8831 40.8164 86.2444 40.106 85.4053 39.6109" fill="#5A28BE"></path><path d="M92.9847 35.1009H90.7668V50.8562C90.7668 51.6606 90.9079 52.3562 91.1901 52.9404C91.4723 53.527 91.9327 53.9849 92.5688 54.3166C93.205 54.6483 94.0441 54.8166 95.0862 54.8166C95.7719 54.8166 96.3758 54.7424 96.9031 54.5939V52.777C96.4253 52.8364 95.9996 52.8661 95.6233 52.8661C94.6407 52.8661 93.955 52.6755 93.5689 52.2918C93.1827 51.9106 92.9872 51.3958 92.9872 50.7497V41.1456H96.9179V39.2247H92.9872V35.1009H92.9847Z" fill="#5A28BE"></path><path d="M179.162 41.4971C179.962 41.007 180.892 40.7594 181.954 40.7594C182.838 40.7594 183.613 40.9352 184.276 41.2892C184.942 41.6407 185.474 42.1233 185.878 42.7323C186.279 43.3437 186.546 44.0466 186.675 44.8387H188.878C188.719 43.7174 188.348 42.7075 187.769 41.809C187.187 40.9104 186.4 40.1951 185.407 39.6654C184.415 39.1356 183.264 38.8683 181.952 38.8683C180.482 38.8683 179.182 39.1876 178.051 39.8287C176.92 40.4698 176.031 41.3956 175.385 42.606C174.739 43.8164 174.417 45.267 174.417 46.9551C174.417 48.6433 174.734 50.0616 175.37 51.2745C176.006 52.4849 176.897 53.4132 178.043 54.0592C179.189 54.7053 180.509 55.0271 181.996 55.0271C183.246 55.0271 184.358 54.7845 185.333 54.2969C186.306 53.8117 187.093 53.1359 187.695 52.2721C188.296 51.4082 188.69 50.4205 188.878 49.3091H186.69C186.521 50.0641 186.229 50.7299 185.818 51.3042C185.405 51.881 184.878 52.3265 184.232 52.6458C183.586 52.9627 182.84 53.1211 181.999 53.1211C180.897 53.1211 179.944 52.8711 179.14 52.3686C178.335 51.8661 177.719 51.1507 177.293 50.2176C176.868 49.2844 176.652 48.1878 176.652 46.9279C176.652 45.668 176.87 44.5689 177.308 43.6382C177.744 42.705 178.363 41.9921 179.162 41.502" fill="#5A28BE"></path><path d="M169.793 39.6134C168.954 39.1183 167.944 38.8683 166.763 38.8683C165.583 38.8683 164.511 39.1456 163.607 39.7025C162.704 40.2594 162.033 41.0119 161.597 41.9649H161.538V39.2099H159.32V54.6657H161.538V45.7472C161.538 44.8338 161.724 44.0046 162.097 43.2595C162.469 42.5144 163.008 41.9253 163.714 41.4946C164.419 41.0639 165.256 40.8461 166.231 40.8461C167.471 40.8461 168.434 41.2322 169.12 42.007C169.806 42.7818 170.147 43.8882 170.147 45.3264V54.6632H172.365V45.0887C172.365 43.7793 172.147 42.6605 171.709 41.7397C171.271 40.8164 170.635 40.106 169.796 39.6109" fill="#5A28BE"></path><path d="M125.988 33.7098C125.76 33.5761 125.495 33.5093 125.198 33.5093C124.901 33.5093 124.649 33.5761 124.416 33.7098C124.183 33.8434 123.995 34.0291 123.857 34.2618C123.718 34.4944 123.649 34.7568 123.649 35.044C123.649 35.3311 123.718 35.5935 123.857 35.8262C123.995 36.0588 124.181 36.2445 124.416 36.3856C124.649 36.5242 124.909 36.5935 125.198 36.5935C125.488 36.5935 125.76 36.5242 125.988 36.3856C126.216 36.247 126.396 36.0613 126.532 35.8262C126.666 35.5935 126.733 35.3311 126.733 35.044C126.733 34.7568 126.666 34.4969 126.532 34.2618C126.399 34.0291 126.218 33.8434 125.988 33.7098Z" fill="#5A28BE"></path><path d="M192.44 45.7199C192.559 44.5986 192.858 43.658 193.341 42.8981C193.821 42.1382 194.427 41.5738 195.158 41.2C195.888 40.8288 196.69 40.6406 197.564 40.6406C198.517 40.6406 199.343 40.8535 200.044 41.2817C200.744 41.7075 201.281 42.3065 201.66 43.0763C202.036 43.8461 202.242 44.7273 202.272 45.7199H192.442H192.44ZM203.631 42.4649C203.059 41.3189 202.252 40.4327 201.21 39.8065C200.168 39.1802 198.962 38.8683 197.591 38.8683C196.219 38.8683 194.95 39.1876 193.838 39.8287C192.727 40.4698 191.848 41.3981 191.202 42.6134C190.556 43.8288 190.234 45.2571 190.234 46.8932C190.234 48.4329 190.531 49.819 191.128 51.0567C191.724 52.2919 192.581 53.2597 193.697 53.9602C194.814 54.6607 196.133 55.0097 197.65 55.0097C198.841 55.0097 199.905 54.7969 200.843 54.3686C201.781 53.9429 202.551 53.3488 203.15 52.5889C203.752 51.829 204.17 50.9428 204.408 49.9304H202.22C202.031 50.5864 201.729 51.1532 201.311 51.6359C200.895 52.1186 200.375 52.4899 199.754 52.7523C199.133 53.0146 198.452 53.1458 197.707 53.1458C196.705 53.1458 195.816 52.9255 195.041 52.4825C194.266 52.0419 193.65 51.3933 193.195 50.5394C192.739 49.6854 192.474 48.668 192.405 47.4873H204.423C204.442 47.2695 204.457 47.0863 204.467 46.9353C204.477 46.7868 204.482 46.6333 204.482 46.4749C204.482 44.9476 204.197 43.6085 203.626 42.4625" fill="#5A28BE"></path><path d="M141.56 39.2074V39.2124C141.575 39.2124 141.572 39.2099 141.56 39.2074Z" fill="#5A28BE"></path><path d="M145.05 45.7199C145.169 44.5986 145.468 43.658 145.951 42.8981C146.431 42.1382 147.038 41.5738 147.768 41.2C148.498 40.8287 149.3 40.6406 150.174 40.6406C151.127 40.6406 151.954 40.8535 152.654 41.2817C153.355 41.71 153.892 42.3065 154.271 43.0763C154.647 43.8461 154.852 44.7273 154.882 45.7199H145.053H145.05ZM153.82 39.8089C152.778 39.1827 151.572 38.8708 150.201 38.8708C148.83 38.8708 147.56 39.1901 146.449 39.8312C145.337 40.4723 144.458 41.4005 143.812 42.6159C143.166 43.8313 142.845 45.2595 142.845 46.8957C142.845 48.4353 143.142 49.8215 143.738 51.0567C144.335 52.2919 145.191 53.2597 146.308 53.9602C147.424 54.6607 148.743 55.0097 150.261 55.0097C151.451 55.0097 152.516 54.7969 153.454 54.3686C154.392 53.9429 155.162 53.3488 155.761 52.5889C156.362 51.829 156.781 50.9428 157.018 49.9304H154.83C154.642 50.5864 154.34 51.1532 153.922 51.6359C153.506 52.1186 152.986 52.4899 152.365 52.7523C151.743 53.0146 151.063 53.1458 150.318 53.1458C149.315 53.1458 148.426 52.9255 147.652 52.4825C146.877 52.0419 146.261 51.3933 145.805 50.5393C145.35 49.6854 145.085 48.668 145.015 47.4873H157.033C157.053 47.2695 157.068 47.0863 157.078 46.9353C157.087 46.7868 157.092 46.6333 157.092 46.4724C157.092 44.9452 156.808 43.606 156.236 42.46C155.664 41.3139 154.86 40.4277 153.818 39.8015" fill="#5A28BE"></path><path d="M131.844 42.2867C132.151 41.7372 132.584 41.3089 133.139 41.007C133.693 40.705 134.339 40.554 135.075 40.554C135.81 40.554 136.441 40.705 137.003 41.007C137.565 41.3089 137.998 41.7397 138.305 42.2941C138.612 42.8511 138.765 43.4798 138.765 44.1852C138.765 44.8907 138.609 45.4922 138.297 46.0244C137.986 46.5566 137.547 46.9625 136.988 47.2447C136.426 47.5269 135.79 47.668 135.075 47.668C134.359 47.668 133.721 47.522 133.161 47.2299C132.599 46.9378 132.164 46.5219 131.852 45.9873C131.54 45.4501 131.384 44.8412 131.384 44.1555C131.384 43.4699 131.537 42.8387 131.844 42.2867ZM141.263 53.1136C140.394 52.4329 139.112 52.0938 137.414 52.0938H132.916C132.122 52.0938 131.54 51.9329 131.174 51.6087C130.807 51.2869 130.622 50.8958 130.622 50.4403C130.622 50.0938 130.735 49.7769 130.963 49.4948C131.191 49.2126 131.56 48.9452 132.065 48.6977C132.51 48.9056 132.986 49.069 133.486 49.1829C133.986 49.2967 134.52 49.3537 135.087 49.3537C136.268 49.3537 137.302 49.1433 138.191 48.72C139.08 48.2992 139.768 47.6952 140.253 46.9106C140.738 46.1259 140.983 45.2125 140.983 44.1704C140.983 43.1283 140.738 42.1926 140.246 41.3931C139.916 40.8584 139.496 40.4055 138.988 40.0317V39.2124C139.112 39.2173 141.392 39.195 141.555 39.2099V36.8163C139.305 36.8163 138.31 37.8683 137.745 39.346C136.953 39.0292 136.062 38.8708 135.072 38.8708C133.901 38.8708 132.872 39.0886 131.983 39.5267C131.094 39.9649 130.399 40.5812 129.899 41.3807C129.396 42.1803 129.146 43.106 129.146 44.158C129.146 44.9427 129.29 45.6581 129.579 46.3016C129.867 46.9477 130.275 47.4972 130.8 47.9551V48.0591C130.065 48.4452 129.525 48.8759 129.176 49.3462C128.829 49.819 128.654 50.3611 128.654 50.9775C128.654 53.4874 131.317 53.9404 133.047 53.9404H137.231C138.253 53.9404 139.035 54.131 139.575 54.5147C140.117 54.8959 140.387 55.4652 140.387 56.2201C140.387 57.1236 139.963 57.8241 139.114 58.3192C138.265 58.8167 136.988 59.0643 135.28 59.0643C133.671 59.0643 132.406 58.8365 131.483 58.3786C130.56 57.9207 130.099 57.2573 130.099 56.3835H128V56.7845C128 57.5791 128.27 58.2722 128.812 58.8687C129.352 59.4653 130.156 59.9257 131.226 60.2549C132.292 60.5816 133.594 60.745 135.134 60.745C136.822 60.745 138.218 60.5445 139.325 60.141C140.431 59.74 141.248 59.1806 141.775 58.4652C142.3 57.7499 142.565 56.9207 142.565 55.9776C142.565 54.7473 142.129 53.7919 141.263 53.1112" fill="#5A28BE"></path></svg> 