<?xml version="1.0" standalone="no"?>
<!DOCTYPE svg PUBLIC "-//W3C//DTD SVG 20010904//EN"
 "http://www.w3.org/TR/2001/REC-SVG-20010904/DTD/svg10.dtd">
<svg version="1.0" xmlns="http://www.w3.org/2000/svg"
 width="120.000000pt" height="40.000000pt" viewBox="0 0 120.000000 40.000000"
 preserveAspectRatio="xMidYMid meet">

<g transform="translate(0.000000,40.000000) scale(0.100000,-0.100000)"
fill="#000000" stroke="none">
<path d="M0 345 c0 -42 3 -55 15 -55 11 0 15 11 15 36 0 34 1 35 33 32 28 -3
32 -7 35 -35 2 -21 9 -33 18 -33 10 0 14 14 14 55 l0 55 -65 0 -65 0 0 -55z"/>
<path d="M190 339 c0 -55 2 -60 18 -53 30 14 72 7 96 -15 22 -21 23 -21 40 -2
36 40 119 33 151 -12 15 -21 15 -21 15 6 0 22 4 27 25 27 14 0 25 -5 25 -10 0
-7 6 -7 19 0 31 16 77 12 102 -9 24 -19 24 -19 47 2 15 14 34 20 60 19 20 -1
56 -1 80 -1 39 0 42 -2 42 -28 0 -27 0 -27 15 -6 19 27 76 46 114 38 77 -17
109 -110 55 -160 -46 -43 -118 -42 -166 2 -17 15 -18 14 -18 -6 0 -19 -5 -22
-42 -22 -24 0 -60 0 -80 -1 -26 -1 -45 5 -60 19 l-23 21 -25 -20 c-20 -16 -34
-19 -72 -15 l-48 6 0 -49 c0 -47 -2 -50 -25 -50 -24 0 -25 3 -25 60 0 33 -3
60 -7 60 -3 0 -15 -7 -25 -17 -29 -26 -101 -23 -132 6 -26 24 -26 24 -26 3 0
-18 -6 -22 -30 -22 -30 0 -30 0 -30 60 0 47 -4 61 -18 69 -35 19 -52 -4 -52
-69 l0 -60 -42 -2 c-103 -4 -118 7 -118 83 0 32 -5 49 -15 53 -13 5 -15 -13
-15 -119 l0 -125 600 0 600 0 0 65 c0 63 -1 65 -20 53 -24 -16 -55 0 -55 27 0
27 31 43 55 27 20 -12 20 -10 20 108 l0 120 -505 0 -505 0 0 -61z"/>
<path d="M385 240 c-4 -6 7 -10 24 -10 17 0 31 5 31 10 0 6 -11 10 -24 10 -14
0 -28 -4 -31 -10z"/>
<path d="M100 199 c0 -52 24 -48 28 4 2 28 -1 37 -12 37 -12 0 -16 -11 -16
-41z"/>
<path d="M570 220 c-15 -28 4 -60 34 -60 32 0 50 24 42 55 -5 20 -13 25 -36
25 -19 0 -33 -7 -40 -20z"/>
<path d="M783 233 c-7 -2 -13 -18 -13 -34 0 -22 6 -30 25 -35 29 -7 55 10 55
35 0 33 -32 49 -67 34z"/>
<path d="M980 221 c-16 -32 4 -63 38 -59 24 3 27 7 27 38 0 31 -3 35 -27 38
-19 2 -30 -3 -38 -17z"/>
<path d="M383 178 c6 -19 127 -19 127 -1 0 9 -18 13 -66 13 -48 0 -65 -3 -61
-12z"/>
</g>
</svg>
